# xmcd CD database file
#
# Track frame offsets:
#	150
#	38426
#	70484
#	100237
#	147845
#	196934
#	235523
#	283356
#	315637
#
# Disc length: 4724 seconds
#
# Revision: 0
# Processed by: cddbd v1.5.2PL0 Copyright (c) Steve Scherf et al.
# Submitted via: CDex 1.70beta2
#
DISCID=7c127209
DTITLE=Various Artist - My Timeout Tunes - Wellness Dream Lounge
DYEAR=2011
DGENRE=New Age
TTITLE0=Frank Metzner - Meine Träume Leben
TTITLE1=Vinito - Mußestunden nach Sonnenuntergang
TTITLE2=Vinito - Die Abendstimmung genießen
TTITLE3=Frank Metzner - Über den Gipfeln der anderen
TTITLE4=Holger Stiller - Stunden des Glücks
TTITLE5=Michael Reimann - Regenbogen der Seele
TTITLE6=Petra Amasreiter - Der Frühling kehrt ein
TTITLE7=Vinito - Mit Leidenschaft genießem
TTITLE8=Dorothée Fröller - Traumfänger
EXTD=YEAR: 2011
EXTT0=
EXTT1=
EXTT2=
EXTT3=
EXTT4=
EXTT5=
EXTT6=
EXTT7=
EXTT8=
PLAYORDER=
